<mxfile host="app.diagrams.net" modified="2023-01-15T23:39:14.436Z" agent="5.0 (Windows)" version="20.8.5" etag="dYGONlYOhr8-M08gx9no" type="github">
  <diagram id="h3f6I2Zujj9m9bo5GkAa" name="Page-1">
    <mxGraphModel dx="2284" dy="846" grid="1" gridSize="10" guides="1" tooltips="1" connect="1" arrows="1" fold="1" page="1" pageScale="1" pageWidth="850" pageHeight="1100" math="0" shadow="0">
      <root>
        <mxCell id="0" />
        <mxCell id="1" parent="0" />
        <mxCell id="3Sl2UDyZwWmOP0pJjKLI-1" value="&lt;div&gt;Ubuntu 18.04&lt;/div&gt;" style="verticalLabelPosition=bottom;verticalAlign=top;html=1;shape=mxgraph.basic.rect;fillColor2=none;strokeWidth=1;size=20;indent=5;" vertex="1" parent="1">
          <mxGeometry x="180" y="170" width="500" height="390" as="geometry" />
        </mxCell>
        <mxCell id="3Sl2UDyZwWmOP0pJjKLI-2" value="JVM11" style="verticalLabelPosition=bottom;verticalAlign=top;html=1;shape=mxgraph.basic.rect;fillColor2=none;strokeWidth=1;size=20;indent=5;" vertex="1" parent="1">
          <mxGeometry x="470" y="210" width="170" height="170" as="geometry" />
        </mxCell>
        <mxCell id="3Sl2UDyZwWmOP0pJjKLI-3" value="Jetty" style="verticalLabelPosition=bottom;verticalAlign=top;html=1;shape=mxgraph.basic.rect;fillColor2=none;strokeWidth=1;size=20;indent=5;" vertex="1" parent="1">
          <mxGeometry x="495" y="230" width="120" height="120" as="geometry" />
        </mxCell>
        <mxCell id="3Sl2UDyZwWmOP0pJjKLI-4" value="OpenID 1.3.5" style="verticalLabelPosition=bottom;verticalAlign=top;html=1;shape=mxgraph.basic.rect;fillColor2=none;strokeWidth=1;size=20;indent=5;" vertex="1" parent="1">
          <mxGeometry x="510" y="250" width="90" height="60" as="geometry" />
        </mxCell>
        <mxCell id="3Sl2UDyZwWmOP0pJjKLI-6" value="localhost:8080" style="edgeStyle=orthogonalEdgeStyle;rounded=0;orthogonalLoop=1;jettySize=auto;html=1;entryX=-0.006;entryY=0.5;entryDx=0;entryDy=0;entryPerimeter=0;startArrow=classic;startFill=1;" edge="1" parent="1" source="3Sl2UDyZwWmOP0pJjKLI-5" target="3Sl2UDyZwWmOP0pJjKLI-2">
          <mxGeometry relative="1" as="geometry" />
        </mxCell>
        <mxCell id="3Sl2UDyZwWmOP0pJjKLI-7" value="IP_ADDR:443" style="edgeStyle=orthogonalEdgeStyle;rounded=0;orthogonalLoop=1;jettySize=auto;html=1;startArrow=classic;startFill=1;entryX=0.992;entryY=0.5;entryDx=0;entryDy=0;entryPerimeter=0;" edge="1" parent="1" source="3Sl2UDyZwWmOP0pJjKLI-5" target="3Sl2UDyZwWmOP0pJjKLI-11">
          <mxGeometry relative="1" as="geometry">
            <mxPoint x="20" y="295" as="targetPoint" />
            <Array as="points" />
          </mxGeometry>
        </mxCell>
        <mxCell id="3Sl2UDyZwWmOP0pJjKLI-5" value="NGINX" style="verticalLabelPosition=bottom;verticalAlign=top;html=1;shape=mxgraph.basic.rect;fillColor2=none;strokeWidth=1;size=20;indent=5;" vertex="1" parent="1">
          <mxGeometry x="240" y="210" width="120" height="170" as="geometry" />
        </mxCell>
        <mxCell id="3Sl2UDyZwWmOP0pJjKLI-9" style="edgeStyle=orthogonalEdgeStyle;rounded=0;orthogonalLoop=1;jettySize=auto;html=1;startArrow=none;startFill=0;" edge="1" parent="1" source="3Sl2UDyZwWmOP0pJjKLI-8" target="3Sl2UDyZwWmOP0pJjKLI-2">
          <mxGeometry relative="1" as="geometry" />
        </mxCell>
        <mxCell id="3Sl2UDyZwWmOP0pJjKLI-8" value="OE Federated Identity Sources" style="verticalLabelPosition=middle;verticalAlign=middle;html=1;shape=mxgraph.basic.rect;fillColor2=none;strokeWidth=1;size=20;indent=5;fillColor=#fff2cc;strokeColor=#d6b656;labelPosition=center;align=center;" vertex="1" parent="1">
          <mxGeometry x="180" y="20" width="500" height="60" as="geometry" />
        </mxCell>
        <mxCell id="3Sl2UDyZwWmOP0pJjKLI-10" value="TOE" style="verticalLabelPosition=bottom;verticalAlign=top;html=1;shape=mxgraph.basic.rect;fillColor2=none;strokeWidth=1;size=20;indent=5;fillColor=#d5e8d4;strokeColor=#82b366;textOpacity=60;opacity=50;" vertex="1" parent="1">
          <mxGeometry x="90" y="180" width="620" height="300" as="geometry" />
        </mxCell>
        <mxCell id="3Sl2UDyZwWmOP0pJjKLI-11" value="OE Consumers" style="verticalLabelPosition=middle;verticalAlign=middle;html=1;shape=mxgraph.basic.rect;fillColor2=none;strokeWidth=1;size=20;indent=5;fillColor=#fff2cc;strokeColor=#d6b656;labelPosition=center;align=center;" vertex="1" parent="1">
          <mxGeometry x="-220" y="265" width="240" height="60" as="geometry" />
        </mxCell>
      </root>
    </mxGraphModel>
  </diagram>
</mxfile>
